<svg xmlns="http://www.w3.org/2000/svg" viewBox="0 0 64 64" fill="none">
  <defs>
    <clipPath id="rounded">
      <rect width="64" height="64" rx="12"/>
    </clipPath>
  </defs>
  <rect width="64" height="64" rx="12" fill="#0f172a"/>
  <g clip-path="url(#rounded)">
    <svg viewBox="0 0 1536 1536" width="64" height="64">
      <path fill="white" stroke="none"
        d="M 830.00,475.21
           C 830.00,475.21 845.00,475.21 845.00,475.21
             845.00,475.21 857.00,476.10 857.00,476.10
             857.00,476.10 868.00,476.10 868.00,476.10
             906.68,481.05 947.43,499.63 979.00,522.00
             992.47,531.54 1012.85,548.43 1021.75,562.00
             1029.51,573.83 1021.62,578.95 1013.72,586.85
             1013.72,586.85 970.99,628.04 970.99,628.04
             966.26,632.67 957.57,642.95 951.00,643.74
             945.44,644.40 940.96,640.36 937.00,637.08
             937.00,637.08 912.00,617.01 912.00,617.01
             893.34,602.60 859.02,583.04 835.00,583.00
             835.00,583.00 831.00,583.00 831.00,583.00
             816.05,583.18 808.49,590.76 798.72,601.09
             798.72,601.09 762.00,638.00 762.00,638.00
             754.02,645.98 746.48,654.95 736.00,659.69
             714.31,669.50 685.48,663.76 673.35,642.00
             667.80,632.06 667.87,626.91 668.00,616.00
             668.27,594.34 689.28,579.45 703.09,564.99
             703.09,564.99 718.58,549.72 718.58,549.72
             718.58,549.72 753.49,515.00 753.49,515.00
             753.49,515.00 762.00,506.09 762.00,506.09
             771.55,497.10 783.90,488.52 796.00,483.34
             801.58,480.95 814.95,477.31 821.00,476.32
             821.00,476.32 830.00,475.21 830.00,475.21 Z
           M 739.00,479.64
           C 751.12,479.96 747.59,487.69 741.71,493.71
             741.71,493.71 704.80,530.39 704.80,530.39
             704.80,530.39 672.00,563.00 672.00,563.00
             663.80,571.20 655.38,579.36 650.32,590.00
             644.54,602.17 643.85,609.85 644.00,623.00
             644.00,623.00 646.37,642.96 646.37,642.96
             645.60,647.52 639.64,658.52 637.30,663.00
             637.30,663.00 628.45,684.00 628.45,684.00
             619.96,705.41 615.48,728.12 613.91,751.00
             613.91,751.00 613.06,761.00 613.06,761.00
             613.06,761.00 613.06,770.00 613.06,770.00
             613.09,777.32 615.86,784.90 613.06,792.00
             610.83,798.25 602.83,805.18 598.00,810.00
             598.00,810.00 563.58,844.17 563.58,844.17
             563.58,844.17 545.00,862.47 545.00,862.47
             541.67,865.76 536.99,870.45 532.00,870.61
             526.70,870.77 523.34,867.00 520.62,863.00
             515.79,855.90 511.05,839.65 508.58,831.00
             502.85,810.91 499.03,789.90 499.00,769.00
             499.00,769.00 498.34,758.00 498.34,758.00
             498.34,758.00 499.00,744.00 499.00,744.00
             499.00,744.00 500.04,734.00 500.04,734.00
             500.04,734.00 500.04,725.00 500.04,725.00
             500.04,725.00 505.26,695.00 505.26,695.00
             507.22,684.58 511.15,672.05 514.66,662.00
             540.61,587.63 596.09,527.94 669.00,497.51
             680.80,492.59 706.43,484.71 719.00,482.46
             719.00,482.46 739.00,479.64 739.00,479.64 Z
           M 786.00,609.00
           C 786.00,609.00 785.00,609.00 785.00,609.00
             785.00,609.00 786.00,610.00 786.00,610.00
             786.00,610.00 786.00,609.00 786.00,609.00 Z
           M 655.00,789.46
           C 673.39,786.92 691.10,803.28 689.68,822.00
             687.98,844.27 677.75,847.82 663.92,862.29
             663.92,862.29 603.00,924.00 603.00,924.00
             592.07,934.93 582.99,947.63 566.00,946.96
             540.77,945.97 529.39,918.63 541.36,898.00
             544.63,892.37 564.12,873.88 570.00,868.00
             570.00,868.00 607.00,831.00 607.00,831.00
             607.00,831.00 623.17,814.68 623.17,814.68
             634.15,804.45 639.69,792.87 655.00,789.46 Z
           M 723.00,846.44
           C 742.86,844.33 757.00,858.51 757.00,878.00
             757.00,883.95 756.25,888.68 753.35,894.00
             750.04,900.08 731.07,917.93 725.00,924.00
             725.00,924.00 667.00,982.00 667.00,982.00
             656.11,992.89 646.26,1006.11 630.00,1007.83
             613.28,1009.59 596.23,996.16 596.00,979.00
             595.81,964.57 597.79,961.29 608.00,951.00
             608.00,951.00 618.13,940.47 618.13,940.47
             618.13,940.47 683.84,874.72 683.84,874.72
             691.30,867.35 703.85,853.29 713.00,849.04
             716.01,847.65 719.74,847.04 723.00,846.44 Z
           M 657.00,865.00
           C 657.00,865.00 656.00,865.00 656.00,865.00
             656.00,865.00 657.00,866.00 657.00,866.00
             657.00,866.00 657.00,865.00 657.00,865.00 Z
           M 947.00,876.84
           C 956.70,874.28 961.54,881.65 968.17,887.51
             968.17,887.51 1001.00,917.96 1001.00,917.96
             1001.00,917.96 1014.00,930.00 1014.00,930.00
             1020.24,936.23 1027.98,942.11 1025.21,952.00
             1022.48,961.78 1009.27,974.77 1002.00,982.00
             979.34,1004.50 946.33,1025.34 917.00,1038.00
             917.00,1038.00 893.00,1046.51 893.00,1046.51
             893.00,1046.51 858.00,1056.33 858.00,1056.33
             838.60,1060.34 811.87,1062.17 792.00,1062.00
             792.00,1062.00 780.00,1061.16 780.00,1061.16
             771.35,1060.40 760.96,1060.07 759.57,1049.00
             758.61,1041.36 765.17,1035.83 770.00,1031.00
             770.00,1031.00 801.71,999.92 801.71,999.92
             801.71,999.92 853.00,949.00 853.00,949.00
             853.00,949.00 876.17,925.64 876.17,925.64
             876.17,925.64 916.00,899.81 916.00,899.81
             916.00,899.81 947.00,876.84 947.00,876.84 Z
           M 794.00,896.47
           C 800.47,895.57 802.91,896.22 809.00,898.34
             822.01,902.89 828.58,911.24 829.68,925.00
             831.01,941.70 818.73,951.38 808.00,962.00
             808.00,962.00 744.00,1026.00 744.00,1026.00
             733.31,1036.69 722.96,1050.37 707.00,1052.25
             704.18,1052.88 701.78,1052.39 699.00,1052.25
             683.56,1049.83 672.51,1038.80 671.75,1023.00
             671.08,1009.17 676.21,1004.57 685.11,995.58
             685.11,995.58 696.39,984.27 696.39,984.27
             696.39,984.27 719.09,961.07 719.09,961.07
             719.09,961.07 756.21,924.33 756.21,924.33
             768.54,911.89 776.00,900.69 794.00,896.47 Z
           M 639.00,927.00
           C 639.00,927.00 638.00,927.00 638.00,927.00
             638.00,927.00 639.00,928.00 639.00,928.00
             639.00,928.00 639.00,927.00 639.00,927.00 Z
           M 722.00,1042.00
           C 722.00,1042.00 721.00,1042.00 721.00,1042.00
             721.00,1042.00 722.00,1043.00 722.00,1043.00
             722.00,1042.00 722.00,1042.00 722.00,1042.00 Z"/>
    </svg>
  </g>
</svg>